<?xml version="1.0" standalone="no"?>
<!DOCTYPE svg PUBLIC "-//W3C//DTD SVG 20010904//EN"
 "http://www.w3.org/TR/2001/REC-SVG-20010904/DTD/svg10.dtd">
<svg version="1.0" xmlns="http://www.w3.org/2000/svg"
 width="512.000000pt" height="512.000000pt" viewBox="0 0 512.000000 512.000000"
 preserveAspectRatio="xMidYMid meet">
<metadata>
Created by potrace 1.14, written by Peter Selinger 2001-2017
</metadata>
<g transform="translate(0.000000,512.000000) scale(0.100000,-0.100000)"
fill="#000000" stroke="none">
<path d="M2233 4910 c-148 -92 -238 -257 -238 -435 1 -49 4 -105 8 -123 16
-73 60 -159 110 -219 21 -25 29 -33 80 -77 28 -23 123 -71 162 -80 17 -5 39
-10 50 -13 44 -12 207 -4 221 10 4 4 14 7 21 7 22 0 116 47 141 70 12 11 22
18 22 15 0 -3 19 14 42 37 41 43 109 140 112 162 1 6 4 16 7 21 6 10 16 44 26
95 8 35 7 149 -1 185 -27 122 -69 198 -161 288 -77 75 -84 76 -343 75 -201 0
-235 -3 -259 -18z"/>
<path d="M1385 4840 c-11 -5 -43 -17 -71 -28 -28 -11 -61 -28 -74 -38 -51 -43
-80 -73 -80 -83 0 -5 -6 -14 -13 -18 -16 -10 -44 -75 -55 -128 -17 -78 -1
-185 34 -242 8 -13 12 -23 9 -23 -20 0 103 -117 147 -140 43 -22 141 -47 173
-44 109 11 187 46 254 114 28 28 51 58 51 66 0 8 4 14 9 14 5 0 12 12 16 28 5
15 9 32 11 37 1 6 7 24 12 40 5 17 7 60 6 97 -5 127 -90 258 -203 310 -57 27
-143 46 -167 37 -11 -3 -23 -3 -29 1 -5 4 -19 4 -30 0z"/>
<path d="M3528 4845 c-2 -2 -21 -6 -43 -9 -74 -11 -147 -50 -207 -111 -56 -57
-104 -182 -101 -260 5 -90 42 -185 96 -245 37 -42 120 -96 162 -106 82 -19
101 -21 150 -13 77 14 100 20 116 35 8 8 20 14 26 14 5 0 22 11 36 24 14 13
28 22 30 19 3 -2 8 5 12 16 3 12 10 21 15 21 9 0 61 84 64 104 1 6 5 16 9 22
3 6 9 41 13 77 15 156 -63 299 -199 366 -34 17 -78 33 -97 36 -64 10 -79 12
-82 10z"/>
<path d="M618 4687 c-18 -4 -41 -17 -50 -29 -10 -11 -18 -17 -18 -14 0 14 -48
-42 -66 -75 -23 -45 -24 -152 -1 -196 23 -44 66 -88 105 -108 52 -26 138 -27
189 -2 24 12 43 25 43 30 0 4 5 5 10 2 6 -3 10 1 10 10 0 9 4 14 9 11 5 -4 20
15 33 41 31 65 34 161 6 212 -56 103 -155 146 -270 118z"/>
<path d="M4256 4693 c-2 -3 -10 -5 -18 -6 -45 -7 -161 -121 -141 -140 3 -4 1
-12 -4 -19 -6 -7 -8 -38 -6 -68 5 -79 6 -80 15 -80 4 0 8 -7 8 -15 0 -8 5 -15
12 -15 6 0 9 -3 5 -6 -9 -9 25 -44 70 -71 59 -34 133 -38 198 -10 100 43 157
153 132 257 -16 66 -77 138 -136 162 -27 11 -127 19 -135 11z"/>
<path d="M624 4058 c-3 -5 -10 -6 -15 -3 -5 4 -15 3 -21 -2 -7 -4 -22 -9 -33
-10 -10 -2 -22 -7 -25 -11 -3 -4 -16 -13 -30 -20 -39 -20 -97 -78 -124 -125
-23 -38 -67 -162 -61 -169 1 -2 5 -28 9 -60 6 -62 29 -127 60 -173 27 -39 108
-115 117 -109 4 2 12 -3 19 -11 7 -8 16 -12 21 -9 5 3 9 0 9 -7 0 -7 3 -9 7
-6 3 4 13 2 20 -5 9 -7 50 -11 106 -11 78 0 101 4 150 27 31 15 57 31 57 37 0
6 4 8 9 5 5 -4 28 15 50 40 93 106 121 221 89 364 -10 42 -56 117 -99 160 -45
45 -123 90 -155 90 -8 0 -14 3 -14 8 0 10 -140 11 -146 0z"/>
<path d="M4235 4058 c-16 -5 -41 -11 -55 -14 -14 -3 -31 -12 -37 -21 -7 -9
-13 -14 -13 -10 0 4 -12 -1 -27 -10 -29 -19 -66 -53 -58 -53 2 0 -7 -11 -20
-24 -28 -28 -65 -99 -73 -140 -7 -36 -8 -140 -1 -176 7 -40 59 -139 88 -169
56 -57 169 -119 192 -105 5 3 9 1 9 -4 0 -5 34 -8 78 -5 102 5 102 5 102 15 0
4 3 7 8 6 4 -1 25 6 47 17 56 27 129 103 160 167 23 48 45 145 39 180 -10 68
-15 89 -25 114 -7 16 -12 32 -11 37 1 4 -3 7 -8 7 -5 0 -10 6 -10 14 0 24 -93
112 -147 140 -76 38 -175 52 -238 34z"/>
<path d="M1517 3765 c-45 -17 -96 -55 -96 -72 -1 -7 -5 -13 -10 -13 -15 0 -42
-82 -43 -130 -2 -60 32 -130 83 -174 23 -19 45 -33 50 -31 4 3 9 0 11 -6 5
-15 119 -20 136 -7 7 6 15 8 18 5 9 -9 67 33 99 71 90 107 53 281 -74 347 -44
22 -128 27 -174 10z"/>
<path d="M2414 3769 c-3 -6 -12 -8 -19 -5 -8 3 -19 -2 -25 -9 -7 -8 -16 -13
-20 -10 -5 3 -15 -2 -23 -10 -9 -8 -21 -15 -27 -15 -23 0 -103 -95 -133 -159
-27 -56 -32 -78 -32 -146 0 -79 21 -168 48 -202 43 -56 119 -123 161 -142 77
-35 166 -45 236 -24 25 7 45 12 45 11 0 0 19 9 42 20 190 97 254 359 132 538
-69 102 -168 155 -296 159 -48 2 -85 -1 -89 -6z"/>
<path d="M3325 3764 c-10 -7 -22 -11 -26 -8 -5 3 -9 1 -9 -3 0 -5 -13 -17 -30
-26 -16 -10 -30 -25 -30 -33 0 -8 -3 -14 -8 -14 -11 0 -43 -80 -37 -91 4 -5 2
-9 -3 -9 -14 0 -2 -80 18 -125 22 -48 73 -97 120 -116 53 -20 138 -16 183 9
36 21 102 81 100 92 0 3 4 16 10 30 20 49 12 170 -12 190 -4 3 -14 17 -24 32
-29 46 -102 82 -172 84 -38 1 -68 -4 -80 -12z"/>
<path d="M617 3144 c-1 -2 -16 -5 -33 -8 -66 -12 -146 -47 -172 -76 -12 -13
-13 -13 -6 0 8 16 2 11 -75 -63 -35 -34 -105 -136 -106 -157 -1 -3 -6 -14 -12
-25 -6 -11 -14 -38 -18 -60 -4 -22 -11 -44 -15 -50 -4 -5 -8 -27 -8 -48 -1
-27 2 -36 11 -31 9 5 9 4 0 -7 -16 -16 -17 -33 -2 -23 8 5 9 2 1 -11 -5 -10
-6 -26 -2 -34 4 -9 18 -49 30 -89 13 -40 29 -77 36 -83 8 -6 12 -15 9 -19 -2
-4 9 -20 25 -36 16 -16 30 -35 30 -41 0 -7 4 -13 9 -13 4 0 22 -13 38 -29 58
-55 201 -122 245 -115 10 1 20 -1 23 -5 2 -4 28 -6 57 -5 102 6 127 11 198 41
8 3 20 7 25 8 6 2 28 14 49 29 21 14 43 26 48 26 5 0 6 5 3 10 -3 6 -2 10 3
10 28 0 146 162 156 213 2 6 8 32 15 56 7 24 13 73 14 110 1 69 -20 188 -34
197 -5 3 -9 12 -9 21 0 8 -13 35 -30 60 -16 24 -30 47 -30 50 0 5 -71 74 -106
103 -28 23 -123 67 -174 81 -40 11 -185 21 -193 13z"/>
<path d="M4248 3145 c-2 -2 -19 -6 -39 -9 -61 -9 -179 -60 -179 -77 0 -5 -6
-9 -13 -9 -21 0 -95 -77 -140 -146 -61 -93 -93 -281 -65 -381 5 -20 11 -44 13
-55 6 -30 74 -150 96 -169 10 -9 16 -19 12 -23 -3 -3 -2 -6 3 -6 5 0 21 -10
36 -23 69 -58 104 -80 169 -102 104 -37 234 -37 339 1 8 3 16 5 17 5 2 -1 21
9 43 22 172 96 278 276 274 462 -2 100 -27 192 -65 247 -11 14 -19 31 -19 36
0 6 -29 40 -65 76 -69 69 -173 128 -250 141 -43 8 -162 14 -167 10z"/>
<path d="M1697 3004 c-1 -2 -18 -6 -36 -9 -44 -8 -154 -59 -145 -68 4 -4 2 -7
-6 -7 -28 0 -115 -122 -124 -176 -3 -16 -9 -42 -14 -59 -9 -31 -7 -93 5 -135
3 -14 7 -29 8 -35 6 -25 48 -105 56 -105 5 0 9 -6 9 -12 1 -7 19 -26 41 -43
22 -16 45 -35 52 -40 26 -22 88 -44 137 -49 9 -1 20 -4 25 -7 6 -3 42 0 80 8
39 7 76 14 83 15 6 1 12 5 12 9 0 4 10 9 23 13 12 3 36 19 53 35 18 17 34 28
36 25 3 -2 11 7 18 21 7 14 17 25 22 25 4 0 8 9 8 20 0 11 4 20 10 20 5 0 18
28 29 63 25 81 22 182 -9 260 -39 102 -157 202 -260 222 -39 7 -109 12 -113 9z"/>
<path d="M3200 2998 c-106 -19 -216 -101 -265 -199 -14 -27 -25 -51 -25 -54 0
-3 0 -6 -1 -7 -16 -53 -17 -168 -2 -200 7 -15 13 -29 12 -30 0 -2 5 -16 11
-33 6 -16 11 -31 11 -32 -1 -2 7 -11 17 -21 9 -10 26 -30 37 -44 22 -27 93
-77 138 -96 26 -11 133 -29 150 -24 4 1 24 5 45 8 62 10 141 53 193 107 27 28
49 56 49 62 0 7 6 18 14 24 7 6 17 26 21 44 4 17 9 39 12 47 14 55 9 147 -11
205 -2 6 -7 20 -11 33 -4 12 -12 22 -18 22 -6 0 -8 3 -4 6 7 7 -5 23 -60 80
-81 84 -199 122 -313 102z"/>
<path d="M2485 2860 c-4 -6 -10 -8 -15 -5 -12 8 -72 -16 -107 -43 -32 -24 -74
-82 -81 -112 -20 -93 4 -180 65 -236 34 -31 42 -36 59 -33 4 0 10 -5 14 -11 5
-8 33 -13 71 -13 129 -1 222 86 231 218 1 16 -11 80 -19 101 -11 29 -73 92
-107 109 -16 9 -43 18 -60 21 -16 3 -33 7 -37 10 -4 2 -10 0 -14 -6z"/>
<path d="M2436 2223 c-2 -2 -16 -6 -31 -9 -42 -7 -122 -51 -139 -76 -9 -12
-16 -19 -16 -14 0 18 -64 -72 -88 -124 -21 -45 -25 -69 -25 -140 0 -91 6 -127
23 -144 5 -5 10 -18 10 -28 0 -10 5 -18 10 -18 6 0 10 -6 10 -13 0 -7 9 -19
20 -27 11 -8 20 -20 20 -27 0 -7 5 -13 10 -13 6 0 22 -12 36 -27 14 -16 29
-28 32 -28 4 -1 18 -7 32 -15 37 -20 118 -36 175 -34 28 1 52 3 55 5 3 1 10 3
16 3 18 2 98 40 117 56 43 35 88 80 80 80 -4 0 0 5 10 11 9 5 17 16 17 23 0 8
7 19 15 26 9 7 13 15 11 17 -3 3 0 17 6 32 13 34 18 65 19 123 0 53 -29 168
-42 168 -5 0 -9 7 -9 15 0 27 -117 132 -168 150 -26 10 -54 20 -62 23 -17 6
-139 10 -144 5z"/>
<path d="M696 1943 c-3 -4 -23 -6 -43 -6 -21 0 -42 -2 -48 -6 -5 -3 -19 -7
-29 -8 -27 -5 -126 -62 -126 -74 0 -5 -7 -9 -16 -9 -8 0 -12 -5 -9 -10 3 -6 0
-13 -8 -16 -8 -3 -23 -21 -33 -40 -10 -19 -23 -34 -28 -34 -5 0 -7 -3 -3 -6 3
-4 0 -19 -9 -35 -8 -16 -12 -29 -8 -29 4 0 2 -6 -3 -12 -6 -7 -9 -21 -8 -30 2
-10 -1 -20 -6 -24 -5 -3 -7 -10 -3 -15 3 -5 7 -34 10 -64 8 -109 84 -225 184
-279 88 -48 153 -59 244 -42 48 9 158 60 149 69 -3 4 -1 7 6 7 24 0 108 107
116 148 2 12 7 27 10 32 19 31 22 147 5 208 -17 61 -67 138 -120 184 -27 24
-53 43 -57 44 -5 0 -21 7 -38 14 -16 7 -33 13 -37 12 -5 -1 -8 2 -8 8 0 5 -6
7 -13 4 -8 -3 -25 0 -39 5 -14 5 -29 7 -32 4z"/>
<path d="M1575 1940 c-3 -5 -14 -7 -25 -5 -11 2 -22 0 -25 -6 -4 -5 -15 -9
-26 -9 -10 0 -19 -5 -19 -12 0 -6 -3 -9 -6 -5 -7 6 -30 -16 -66 -63 -83 -111
-31 -285 101 -340 43 -17 150 -18 160 -1 5 7 11 12 15 11 20 -5 80 51 103 95
43 84 35 176 -22 250 -23 31 -79 70 -88 63 -2 -2 -11 3 -21 11 -9 8 -19 11
-22 8 -3 -3 -17 -2 -30 3 -14 6 -26 6 -29 0z"/>
<path d="M3310 1919 c-32 -15 -69 -47 -96 -81 -16 -20 -35 -79 -28 -89 3 -5 1
-9 -4 -9 -14 0 -2 -80 19 -127 11 -24 24 -43 30 -43 6 0 7 -4 4 -10 -3 -5 2
-10 11 -10 10 0 14 -3 11 -6 -11 -12 82 -55 126 -58 51 -5 124 19 165 54 74
62 100 188 56 265 -13 22 -26 47 -29 55 -6 16 -85 66 -97 62 -5 -1 -8 2 -8 7
0 16 -123 8 -160 -10z"/>
<path d="M4194 1921 c-28 -10 -64 -27 -80 -37 -42 -27 -110 -100 -124 -135 -7
-16 -17 -29 -22 -29 -5 0 -6 -5 -3 -10 4 -6 0 -23 -8 -39 -17 -34 -17 -192 0
-213 6 -7 13 -25 17 -40 9 -37 78 -121 128 -156 61 -42 133 -64 203 -63 86 2
105 4 105 13 0 4 8 8 18 8 36 0 172 102 172 129 0 6 3 11 8 11 11 0 49 89 58
135 9 48 9 101 -1 151 -9 52 -54 142 -79 159 -11 8 -17 15 -12 15 18 0 -71 64
-124 89 -71 33 -181 38 -256 12z"/>
<path d="M2382 1294 c-67 -18 -154 -57 -171 -78 -7 -9 -18 -16 -23 -16 -13 0
-96 -91 -103 -112 -4 -10 -11 -18 -16 -18 -6 0 -7 -4 -4 -10 3 -5 2 -10 -4
-10 -10 0 -27 -38 -23 -52 1 -5 -2 -8 -7 -8 -9 0 -17 -25 -29 -90 -8 -44 -7
-195 2 -234 11 -47 74 -176 85 -176 6 0 11 -5 11 -11 0 -11 65 -77 107 -109
28 -21 101 -56 148 -71 22 -6 47 -14 55 -17 36 -11 104 -11 118 0 13 10 14 10
8 1 -9 -16 6 -17 22 -1 9 9 12 9 12 -1 0 -9 4 -10 13 -4 6 5 32 15 57 22 47
13 144 63 167 87 8 7 22 19 31 26 10 7 33 33 52 58 19 25 40 48 45 52 6 4 6 8
1 8 -5 0 -1 9 9 20 10 11 15 20 10 20 -4 0 -3 6 3 13 8 10 23 53 39 117 6 24
5 152 -2 194 -11 72 -55 163 -114 235 -115 141 -325 211 -499 165z"/>
<path d="M1328 1140 c-36 -15 -79 -36 -95 -48 -33 -24 -109 -112 -96 -112 4 0
3 -4 -3 -8 -33 -23 -58 -174 -42 -258 9 -46 55 -136 89 -172 38 -41 104 -84
154 -102 66 -23 180 -20 245 6 3 1 15 5 28 9 12 4 22 11 22 16 0 5 7 9 15 9 9
0 18 7 21 15 4 8 11 15 16 15 30 0 101 112 121 190 75 285 -209 548 -475 440z"/>
<path d="M3470 1158 c-19 -5 -49 -16 -67 -24 -17 -7 -34 -14 -37 -14 -3 0 -18
-10 -33 -22 -122 -101 -172 -226 -149 -371 21 -132 139 -261 271 -296 40 -10
184 -6 197 7 7 7 20 12 29 12 10 0 25 8 35 17 10 10 19 17 21 16 9 -8 23 -2
18 7 -3 6 -1 10 5 10 20 0 106 98 101 115 -2 4 2 11 8 14 14 9 41 117 41 166
0 127 -74 254 -184 319 -74 43 -183 62 -256 44z"/>
<path d="M636 1014 c-175 -45 -231 -267 -100 -389 37 -34 106 -63 144 -59 14
1 40 3 58 5 18 2 38 9 44 16 6 7 15 13 22 13 21 0 83 80 96 124 11 39 10 101
-2 146 -17 66 -117 148 -178 146 -14 -1 -27 2 -30 5 -3 3 -27 0 -54 -7z"/>
<path d="M4215 1000 c-89 -49 -129 -112 -129 -205 0 -57 20 -125 36 -125 5 0
8 -5 8 -11 0 -18 62 -68 100 -80 19 -7 58 -12 86 -12 88 0 175 66 202 153 18
55 21 89 11 96 -5 3 -7 10 -3 15 7 11 -26 83 -53 116 -54 65 -186 92 -258 53z"/>
</g>
</svg>
